<?xml version="1.0" encoding="UTF-8" standalone="no"?>
<!-- Created with Inkscape (http://www.inkscape.org/) -->

<svg
   xmlns:dc="http://purl.org/dc/elements/1.1/"
   xmlns:cc="http://creativecommons.org/ns#"
   xmlns:rdf="http://www.w3.org/1999/02/22-rdf-syntax-ns#"
   xmlns:svg="http://www.w3.org/2000/svg"
   xmlns="http://www.w3.org/2000/svg"
   xmlns:xlink="http://www.w3.org/1999/xlink"
   xmlns:sodipodi="http://sodipodi.sourceforge.net/DTD/sodipodi-0.dtd"
   xmlns:inkscape="http://www.inkscape.org/namespaces/inkscape"
   width="744.09448819"
   height="1052.3622047"
   id="svg2"
   version="1.1"
   inkscape:version="0.48.1 r9760"
   sodipodi:docname="ruby_rockstar.svg"
   inkscape:export-filename="/Users/adam/work/ruby_rockstar/ruby_rockstar.png"
   inkscape:export-xdpi="36.450001"
   inkscape:export-ydpi="36.450001">
  <defs
     id="defs4">
    <linearGradient
       id="linearGradient3838"
       inkscape:collect="always">
      <stop
         id="stop3840"
         offset="0"
         style="stop-color:#ffffff;stop-opacity:1;" />
      <stop
         id="stop3842"
         offset="1"
         style="stop-color:#ffffff;stop-opacity:0;" />
    </linearGradient>
    <linearGradient
       id="linearGradient3858"
       inkscape:collect="always">
      <stop
         id="stop3860"
         offset="0"
         style="stop-color:#ffffff;stop-opacity:1;" />
      <stop
         id="stop3862"
         offset="1"
         style="stop-color:#ffffff;stop-opacity:0;" />
    </linearGradient>
    <linearGradient
       id="linearGradient3876"
       inkscape:collect="always">
      <stop
         id="stop3878"
         offset="0"
         style="stop-color:#ffffff;stop-opacity:1;" />
      <stop
         id="stop3880"
         offset="1"
         style="stop-color:#ffffff;stop-opacity:0.07758621" />
    </linearGradient>
    <linearGradient
       inkscape:collect="always"
       xlink:href="#linearGradient3838"
       id="linearGradient3224"
       gradientUnits="userSpaceOnUse"
       x1="123.52021"
       y1="518.38196"
       x2="87.290634"
       y2="508.3118" />
    <linearGradient
       inkscape:collect="always"
       xlink:href="#linearGradient3858"
       id="linearGradient3226"
       gradientUnits="userSpaceOnUse"
       x1="351.11993"
       y1="686.2049"
       x2="351.4718"
       y2="691.93115" />
    <linearGradient
       inkscape:collect="always"
       xlink:href="#linearGradient3876"
       id="linearGradient3228"
       gradientUnits="userSpaceOnUse"
       x1="326.54507"
       y1="679.50507"
       x2="322.85715"
       y2="685.21936" />
    <linearGradient
       id="linearGradient7309">
      <stop
         id="stop7311"
         offset="0"
         style="stop-color:#999999;stop-opacity:1;" />
      <stop
         id="stop7313"
         offset="1"
         style="stop-color:#000000;stop-opacity:1;" />
    </linearGradient>
    <linearGradient
       inkscape:collect="always"
       xlink:href="#linearGradient7309"
       id="linearGradient7675"
       gradientUnits="userSpaceOnUse"
       gradientTransform="matrix(-0.37587356,1.0468717,-1.0468717,-0.37587356,1431.6619,546.80057)"
       x1="327.14285"
       y1="640.93359"
       x2="684.28571"
       y2="152.36218" />
    <linearGradient
       gradientUnits="userSpaceOnUse"
       y2="152.36218"
       x2="684.28571"
       y1="640.93359"
       x1="327.14285"
       id="linearGradient7319"
       xlink:href="#linearGradient7309-8"
       inkscape:collect="always" />
    <linearGradient
       id="linearGradient7309-8">
      <stop
         id="stop7311-1"
         offset="0"
         style="stop-color:#999999;stop-opacity:1;" />
      <stop
         id="stop7313-4"
         offset="1"
         style="stop-color:#000000;stop-opacity:1;" />
    </linearGradient>
    <linearGradient
       inkscape:collect="always"
       xlink:href="#linearGradient7309-8"
       id="linearGradient7792"
       gradientUnits="userSpaceOnUse"
       x1="327.14285"
       y1="640.93359"
       x2="684.28571"
       y2="152.36218"
       gradientTransform="translate(417.70798,-153.92199)" />
    <linearGradient
       inkscape:collect="always"
       xlink:href="#linearGradient7309-8"
       id="linearGradient7804"
       gradientUnits="userSpaceOnUse"
       gradientTransform="translate(417.70798,-153.92199)"
       x1="327.14285"
       y1="640.93359"
       x2="684.28571"
       y2="152.36218" />
    <linearGradient
       inkscape:collect="always"
       xlink:href="#linearGradient7309-8"
       id="linearGradient7807"
       gradientUnits="userSpaceOnUse"
       gradientTransform="translate(417.70798,-153.92199)"
       x1="327.14285"
       y1="640.93359"
       x2="684.28571"
       y2="152.36218" />
    <linearGradient
       inkscape:collect="always"
       xlink:href="#linearGradient7309-8"
       id="linearGradient7886"
       gradientUnits="userSpaceOnUse"
       gradientTransform="translate(417.70798,-153.92199)"
       x1="327.14285"
       y1="640.93359"
       x2="684.28571"
       y2="152.36218" />
  </defs>
  <sodipodi:namedview
     id="base"
     pagecolor="#ffffff"
     bordercolor="#666666"
     borderopacity="1.0"
     inkscape:pageopacity="0.0"
     inkscape:pageshadow="2"
     inkscape:zoom="0.49497475"
     inkscape:cx="256.93981"
     inkscape:cy="572.77737"
     inkscape:document-units="px"
     inkscape:current-layer="layer1"
     showgrid="false"
     inkscape:window-width="1232"
     inkscape:window-height="940"
     inkscape:window-x="53"
     inkscape:window-y="1"
     inkscape:window-maximized="0" />
  <metadata
     id="metadata7">
    <rdf:RDF>
      <cc:Work
         rdf:about="">
        <dc:format>image/svg+xml</dc:format>
        <dc:type
           rdf:resource="http://purl.org/dc/dcmitype/StillImage" />
        <dc:title></dc:title>
      </cc:Work>
    </rdf:RDF>
  </metadata>
  <g
     inkscape:label="Layer 1"
     inkscape:groupmode="layer"
     id="layer1">
    <path
       style="fill:#000000;fill-opacity:1;stroke:none"
       id="path7489"
       d="m 343.82523,828.12386 c 4.62887,-19.03105 7.9935,-38.6117 10.14435,-58.15337 1.45092,-13.18251 3.66259,-48.01555 4.49104,-60.21351 2.57433,-42.64817 2.05752,-85.45562 -1.16542,-128.04368 -1.20205,-15.88351 -2.59753,-26.48213 -4.42304,-41.93808 -2.3897,-16.26355 -5.42678,-32.39857 -8.02218,-48.62441 -0.21428,-6.44455 -0.0128,-12.89234 -0.24521,-19.34776 0,0 93.07871,-51.32055 93.07871,-51.32055 l 0,0 c -0.22746,6.54576 -0.0351,13.08286 -0.24521,19.61816 -2.60648,19.16946 -5.59109,38.27386 -8.02217,57.47072 -1.77098,16.94719 -3.21534,29.52565 -4.42301,46.81553 -3.00518,43.02403 -3.9017,86.2555 -1.16544,129.32882 2.51393,34.24315 3.69126,69.60679 14.63539,102.22794 0,0 -94.63781,52.18019 -94.63781,52.18019 z"
       inkscape:connector-curvature="0"
       inkscape:export-filename="/Users/adam/work/ruby_rockstar/g7467.png"
       inkscape:export-xdpi="36.450001"
       inkscape:export-ydpi="36.450001" />
    <g
       id="g3884"
       transform="matrix(1.8230932,0.00188149,-0.00188149,1.8230932,-262.37811,-906.26568)"
       inkscape:export-filename="/Users/adam/work/ruby_rockstar/g7467.png"
       inkscape:export-xdpi="36.450001"
       inkscape:export-ydpi="36.450001">
      <path
         transform="matrix(0.3845623,0.6026565,-1.3835417,0.1320995,1022.047,543.20816)"
         d="m 124.24876,512.68817 c 0,11.8552 -9.49747,21.46574 -21.2132,21.46574 -11.715728,0 -21.213203,-9.61054 -21.213203,-21.46574 0,-11.8552 9.497475,-21.46574 21.213203,-21.46574 11.71573,0 21.2132,9.61054 21.2132,21.46574 z"
         sodipodi:ry="21.465742"
         sodipodi:rx="21.213203"
         sodipodi:cy="512.68817"
         sodipodi:cx="103.03556"
         id="path3202"
         style="opacity:0.89224135;fill:#8f0000;fill-opacity:1;stroke:#cd0000;stroke-opacity:1"
         sodipodi:type="arc" />
      <path
         inkscape:connector-curvature="0"
         sodipodi:nodetypes="cccc"
         id="path3204"
         d="m 337.30382,684.33848 14.41,30.73831 14.73649,-30.17196 c -9.65597,1.75256 -19.49051,1.25188 -29.14649,-0.56635 z"
         style="opacity:0.89224135;fill:#8f0000;fill-opacity:1;fill-rule:evenodd;stroke:#cd0000;stroke-width:1px;stroke-linecap:butt;stroke-linejoin:miter;stroke-opacity:1" />
      <path
         inkscape:connector-curvature="0"
         sodipodi:nodetypes="cccc"
         id="path3206"
         d="m 351.20874,717.09709 3.03045,24.24366 18.18275,-27.52665 c -5.74914,1.97561 -13.49485,2.62018 -21.2132,3.28299 z"
         style="opacity:0.89224135;fill:#8f0000;fill-opacity:1;fill-rule:evenodd;stroke:#cd0000;stroke-width:1px;stroke-linecap:butt;stroke-linejoin:miter;stroke-opacity:1" />
      <path
         inkscape:connector-curvature="0"
         sodipodi:nodetypes="cccc"
         id="path3208"
         d="m 351.57362,716.9864 1.9368,25.60427 -23.76483,-28.076 c 5.82028,1.75495 14.09002,2.10371 21.82803,2.47173 z"
         style="fill:#d52020;fill-opacity:1;fill-rule:evenodd;stroke:#cd0000;stroke-width:1px;stroke-linecap:butt;stroke-linejoin:miter;stroke-opacity:1" />
      <path
         inkscape:connector-curvature="0"
         sodipodi:nodetypes="cccc"
         id="path3210"
         d="m 352.21889,716.08694 14.70849,-30.97816 22.16208,22.13933 c -7.29139,2.9873 -24.29546,11.2867 -36.87057,8.83883 z"
         style="opacity:0.89224135;fill:#990000;fill-opacity:1;fill-rule:evenodd;stroke:#cd0000;stroke-width:1px;stroke-linecap:butt;stroke-linejoin:miter;stroke-opacity:1" />
      <path
         inkscape:connector-curvature="0"
         sodipodi:nodetypes="cccc"
         id="path3212"
         d="m 367.0214,684.6992 c 10.71409,-1.95652 14.91549,-5.52299 16.60714,-10.80357 l 5.62501,32.67857 -22.23215,-21.875 z"
         style="opacity:0.89224135;fill:#be0e09;fill-opacity:1;fill-rule:evenodd;stroke:#cd0000;stroke-width:1px;stroke-linecap:butt;stroke-linejoin:miter;stroke-opacity:1" />
      <path
         inkscape:connector-curvature="0"
         sodipodi:nodetypes="ccscc"
         id="path3214"
         d="m 384.5214,677.1992 15.26786,5.35714 c 1.12227,2.49264 3.32903,7.57048 1.51785,12.23215 -2.08576,5.36841 -6.22947,9.33086 -11.33928,12.49999 l -5.89286,-30.35714"
         style="opacity:0.89224135;fill:#8f0000;fill-opacity:1;fill-rule:evenodd;stroke:#cd0000;stroke-width:1px;stroke-linecap:butt;stroke-linejoin:miter;stroke-opacity:1" />
      <path
         inkscape:connector-curvature="0"
         sodipodi:nodetypes="cccc"
         id="path3216"
         d="m 381.3964,668.4492 c 1.49417,1.97582 2.07404,3.92669 2.85714,8.03571 l 15.80358,5.625 -18.66072,-13.66071 z"
         style="opacity:0.80172412;fill:#8f0000;fill-opacity:1;fill-rule:evenodd;stroke:#cd0000;stroke-width:1px;stroke-linecap:butt;stroke-linejoin:miter;stroke-opacity:1" />
      <path
         inkscape:connector-curvature="0"
         sodipodi:nodetypes="cccc"
         id="path3218"
         d="m 352.06383,716.31487 -14.52992,-31.51388 -28.41208,19.99648 c 4.84581,4.44831 30.36649,13.96554 42.942,11.5174 z"
         style="opacity:0.89224135;fill:#a60000;fill-opacity:1;fill-rule:evenodd;stroke:#cd0000;stroke-width:1px;stroke-linecap:butt;stroke-linejoin:miter;stroke-opacity:1" />
      <path
         inkscape:connector-curvature="0"
         sodipodi:nodetypes="cccc"
         id="path3220"
         d="m 336.96331,684.47373 c -10.21403,-3.78066 -14.98504,-7.48452 -15.73758,-12.97814 l -11.88653,32.52572 27.62411,-19.54758 z"
         style="opacity:0.89224135;fill:#8f0000;fill-opacity:1;fill-rule:evenodd;stroke:#cd0000;stroke-width:1px;stroke-linecap:butt;stroke-linejoin:miter;stroke-opacity:1" />
      <path
         inkscape:connector-curvature="0"
         sodipodi:nodetypes="cccc"
         id="path3222"
         d="m 322.87828,668.13635 -18.21429,15.625 c -4.96494,10.52878 3.35546,19.11498 3.92857,20.70979 l 14.28572,-36.33479 z"
         style="opacity:0.89224135;fill:#ad0f0f;fill-opacity:1;fill-rule:evenodd;stroke:#cd0000;stroke-width:1px;stroke-linecap:butt;stroke-linejoin:miter;stroke-opacity:1" />
      <path
         inkscape:connector-curvature="0"
         sodipodi:nodetypes="cccc"
         id="path3224"
         d="m 308.37601,704.77765 45.25254,38.40369 -23.92858,-29.28571 c -8.24314,-1.90417 -14.47904,-5.81559 -21.32396,-9.11798 z"
         style="opacity:0.89224135;fill:#8f0000;fill-opacity:1;fill-rule:evenodd;stroke:#cd0000;stroke-width:1px;stroke-linecap:butt;stroke-linejoin:miter;stroke-opacity:1" />
      <path
         inkscape:connector-curvature="0"
         sodipodi:nodetypes="cccc"
         id="path3226"
         d="m 389.78477,706.99262 -36.51337,36.72444 18.92858,-29.46428 c 6.28749,-2.46865 11.95123,-4.95499 17.58479,-7.26016 z"
         style="opacity:0.76724135;fill:#990000;fill-opacity:1;fill-rule:evenodd;stroke:#cd0000;stroke-width:1px;stroke-linecap:butt;stroke-linejoin:miter;stroke-opacity:1" />
      <path
         transform="matrix(0.3845623,0.6026565,-1.3835417,0.1320995,1022.7503,542.72393)"
         d="m 124.24876,512.68817 c 0,11.8552 -9.49747,21.46574 -21.2132,21.46574 -11.715728,0 -21.213203,-9.61054 -21.213203,-21.46574 0,-11.8552 9.497475,-21.46574 21.213203,-21.46574 11.71573,0 21.2132,9.61054 21.2132,21.46574 z"
         sodipodi:ry="21.465742"
         sodipodi:rx="21.213203"
         sodipodi:cy="512.68817"
         sodipodi:cx="103.03556"
         id="path3836"
         style="opacity:0.40517243;fill:url(#linearGradient3224);fill-opacity:1;stroke:none"
         sodipodi:type="arc" />
      <path
         inkscape:connector-curvature="0"
         sodipodi:nodetypes="cccc"
         id="path3856"
         d="m 337.96999,684.95487 14.41,30.73831 14.73649,-30.17196 c -9.65597,1.75256 -19.49051,1.25188 -29.14649,-0.56635 z"
         style="opacity:0.89224135;fill:url(#linearGradient3226);fill-opacity:1;fill-rule:evenodd;stroke:none" />
      <path
         inkscape:connector-curvature="0"
         sodipodi:nodetypes="cccc"
         id="path3866"
         d="m 336.66919,684.79175 c -10.21403,-3.78066 -14.98504,-7.48452 -15.73758,-12.97814 l -11.88653,32.52572 27.62411,-19.54758 z"
         style="opacity:0.89224135;fill:url(#linearGradient3228);fill-opacity:1;fill-rule:evenodd;stroke:none" />
    </g>
    <path
       style="fill:#000000;fill-opacity:1;stroke:none"
       id="path3262"
       d="m 338.86144,308.05268 c 0.99285,-4.69896 1.73272,-7.00976 1.32325,-12.34811 -0.96101,-12.52938 -6.29687,-24.25567 -14.56712,-33.67097 -3.64261,-4.14696 -8.07319,-7.52913 -12.10981,-11.29369 -5.11749,-3.39574 -9.96156,-7.24478 -15.35245,-10.18719 -22.79712,-12.44292 -49.74836,-17.58121 -75.54901,-16.94553 -6.00119,0.14785 -11.9623,1.02372 -17.94345,1.53557 -5.43432,1.11816 -21.28878,5.78845 -16.30298,3.35448 9.15221,-4.4679 18.98106,-7.83918 29.01883,-9.5621 4.50923,-0.77397 -8.30942,3.95376 -12.01095,6.6428 -8.59623,6.24494 -15.82642,14.97917 -21.09265,24.1178 -3.1754,5.51036 -5.33018,11.54894 -7.99527,17.32341 -1.72764,6.37697 -3.90523,12.64877 -5.18292,19.13092 -4.49197,22.78917 -3.25896,46.75095 3.01679,69.08455 0.97649,3.47496 2.3595,6.82265 3.53922,10.23399 0,0 -47.70338,15.79365 -47.70338,15.79365 l 0,0 c -1.07696,-21.09123 -2.04393,-42.20245 -0.71272,-63.31478 0.43006,-6.8207 0.88928,-13.65522 1.89662,-20.41484 0.97599,-6.54932 2.69599,-12.96594 4.04398,-19.44892 4.52293,-13.37711 5.83733,-20.62964 13.91829,-32.16361 5.55854,-7.9337 13.329,-15.19324 22.52027,-18.76826 49.43542,-19.2283 40.36,-16.95305 72.30444,-21.64863 15.12194,-0.44818 20.14933,-1.17812 35.54746,0.86632 19.86323,2.63727 39.61168,8.6415 57.51142,17.66285 5.94315,2.99533 11.47901,6.73828 17.21851,10.10744 4.79409,3.77646 9.91592,7.17044 14.38223,11.32941 13.40937,12.48655 20.92746,28.15268 27.10301,45.0054 0,0 -56.82161,17.57804 -56.82161,17.57804 z"
       inkscape:connector-curvature="0"
       inkscape:export-filename="/Users/adam/work/ruby_rockstar/g7467.png"
       inkscape:export-xdpi="36.450001"
       inkscape:export-ydpi="36.450001" />
    <path
       style="fill:#000000;fill-opacity:1;stroke:none"
       id="path3264"
       d="m 347.35982,344.84183 c 1.545,-3.35619 2.09197,-4.7636 4.74666,-8.46504 4.24794,-5.92293 13.55707,-16.64137 18.01438,-21.57434 8.00271,-8.85668 18.1499,-19.2613 26.40503,-27.83874 17.83777,-19.51133 37.15892,-37.56793 55.4094,-56.67597 6.03032,-6.93544 3.22736,-3.57675 8.44608,-10.04486 0,0 53.33196,-12.34136 53.33196,-12.34136 l 0,0 c -7.08835,7.13481 -3.31683,3.43412 -11.34486,11.07107 -21.5427,19.4159 -44.46057,37.33628 -64.41463,58.46879 -9.94326,11.04151 -13.66851,14.46357 -22.00079,26.32237 -4.14085,5.89338 -10.09137,14.6432 -10.80104,22.32371 -0.0598,0.64792 0.16826,1.29042 0.25249,1.93563 0,0 -58.04468,16.81874 -58.04468,16.81874 z"
       inkscape:connector-curvature="0"
       inkscape:export-filename="/Users/adam/work/ruby_rockstar/g7467.png"
       inkscape:export-xdpi="36.450001"
       inkscape:export-ydpi="36.450001" />
    <path
       style="fill:#000000;fill-opacity:1;stroke:none"
       id="path3266"
       d="m 418.39352,296.06692 c 16.18114,0.26747 32.36698,-0.74401 48.54057,-1.12917 6.34868,-0.15133 12.6999,-0.16136 19.04983,-0.24212 18.99919,0.91428 38.00794,3.54184 55.02684,12.64873 9.33595,4.99573 18.21165,12.511 25.61092,20.01453 3.35908,3.40639 6.30225,7.19925 9.45338,10.79888 2.52759,3.44938 5.05519,6.89876 7.58276,10.34816 0,0 -41.3132,25.88407 -41.3132,25.88407 l 0,0 c -2.05372,-3.56565 -4.10742,-7.13127 -6.16112,-10.6969 -6.99999,-9.60944 -9.11019,-13.65566 -18.44733,-21.56353 -12.81052,-10.84954 -28.27125,-17.96798 -44.88882,-20.51123 -6.49624,-0.99424 -13.11601,-0.85379 -19.67403,-1.28067 -6.79977,0.50378 -13.61392,0.84138 -20.39935,1.51134 -10.47003,1.0338 -24.85266,3.07251 -35.32926,5.19741 -6.4102,1.30015 -14.61558,3.26124 -20.88661,5.93252 -1.36603,0.58187 -2.56359,1.49882 -3.84538,2.24823 0,0 45.6808,-39.16025 45.6808,-39.16025 z"
       inkscape:connector-curvature="0"
       inkscape:export-filename="/Users/adam/work/ruby_rockstar/g7467.png"
       inkscape:export-xdpi="36.450001"
       inkscape:export-ydpi="36.450001" />
    <path
       style="fill:#000000;fill-opacity:1;stroke:none"
       id="path3268"
       d="m 379.08706,309.45313 c -2.81145,-7.99086 -2.65521,-16.77345 -2.98452,-25.13001 -0.64239,-16.30267 -0.45769,-9.8913 -0.48749,-27.51187 1.32575,-20.08002 -2.06438,-43.0874 6.40926,-61.97677 5.94413,-13.25058 11.64941,-17.30797 21.70175,-27.89555 13.1843,-12.45046 27.58242,-23.48227 41.7681,-34.73793 8.2493,-6.54544 16.43979,-13.03112 25.03907,-19.10787 0,0 51.48413,-10.25596 51.48413,-10.25596 l 0,0 c -3.03649,1.51817 -6.15116,2.88913 -9.10947,4.55453 -7.87863,4.4354 -16.70287,10.51035 -24.01105,15.63363 -9.41311,6.5989 -20.35506,14.4822 -29.14883,21.84534 -4.71395,3.94706 -9.14625,8.21872 -13.7194,12.32805 -8.46354,9.42537 -13.7503,13.90286 -19.28996,25.27752 -9.00084,18.48146 -7.65597,40.2342 -6.46061,60.11474 1.69348,11.33933 1.79462,14.87835 4.88997,25.49781 1.25264,4.29752 4.38821,13.91964 8.10389,17.35842 0.35813,0.33144 0.93149,0.29104 1.39724,0.43666 0,0 -55.58207,23.56923 -55.58207,23.56923 z"
       inkscape:connector-curvature="0"
       inkscape:export-filename="/Users/adam/work/ruby_rockstar/g7467.png"
       inkscape:export-xdpi="36.450001"
       inkscape:export-ydpi="36.450001" />
    <path
       style="fill:#000000;fill-opacity:1;stroke:none"
       id="path3270"
       d="m 406.47728,308.42741 c 20.60303,-15.2013 41.70186,-29.52626 63.92744,-41.73833 6.41967,-3.52736 12.98226,-6.72915 19.47335,-10.09372 35.37478,-15.87018 71.02622,-32.67093 108.69762,-40.30642 2.79101,-0.56569 5.60715,-0.94225 8.41072,-1.41337 0,0 -41.38521,24.50322 -41.38521,24.50322 l 0,0 c -8.64467,0.64609 -16.96656,1.9118 -25.45825,4.14809 -4.59937,1.21123 -15.7492,8.65934 -13.71395,4.02687 0.6239,-1.42014 46.40484,-20.93744 -4.08204,0.95837 -6.2881,3.23846 -12.68419,6.23325 -18.8642,9.71541 -13.68243,7.70945 -27.27488,16.7379 -38.89196,27.86512 -2.10781,2.01896 -5.1471,5.73988 -7.28338,8.30709 0,0 -50.83014,14.02767 -50.83014,14.02767 z"
       inkscape:connector-curvature="0"
       inkscape:export-filename="/Users/adam/work/ruby_rockstar/g7467.png"
       inkscape:export-xdpi="36.450001"
       inkscape:export-ydpi="36.450001" />
    <path
       style="fill:#000000;fill-opacity:1;stroke:none"
       id="path3274"
       d="m 304.53125,333.38299 c -11.95508,-7.43 -26.19077,-9.05494 -40.01565,-9.07623 -21.6851,-0.0334 -30.17674,2.14876 -52.10007,5.44326 -26.68035,6.27053 -29.80185,6.45646 -55.72326,14.69281 -8.20697,2.60772 -16.56394,4.90029 -24.42355,8.41887 -5.51695,2.4698 11.42386,-6.41724 17.35555,-5.2547 4.82589,0.94586 -9.02984,3.90367 -13.47073,6.01608 -3.40365,1.61901 -6.70271,3.44934 -10.05407,5.17403 -2.35857,1.4128 -4.71714,2.82563 -7.07571,4.23846 0,0 -50.525626,9.90029 -50.525626,9.90029 l 0,0 c 3.391414,-1.70025 6.782815,-3.40049 10.174216,-5.10071 4.499847,-2.01348 8.956295,-4.12692 13.499552,-6.04045 23.908728,-10.06987 48.128438,-17.99119 72.866718,-26.40824 24.91159,-8.47601 50.49493,-14.87897 76.19907,-20.41523 9.94091,-1.66122 19.83779,-3.61174 29.82276,-4.98366 29.05154,-3.99171 58.61516,-5.98111 87.71448,-1.42572 0,0 -54.24368,24.82114 -54.24368,24.82114 z"
       inkscape:connector-curvature="0"
       inkscape:export-filename="/Users/adam/work/ruby_rockstar/g7467.png"
       inkscape:export-xdpi="36.450001"
       inkscape:export-ydpi="36.450001" />
    <path
       style="fill:#000000;fill-opacity:1;stroke:none"
       id="path3276"
       d="m 399.28618,336.41767 c 0.32022,-0.7446 0.56473,-1.52665 0.96091,-2.2338 3.20914,-5.72758 7.89894,-10.87275 12.01398,-15.91166 8.13045,-9.95584 4.7514,-6.00809 13.97313,-15.82649 8.6402,-8.50364 17.80615,-16.57605 28.47649,-22.44948 19.24775,-10.59488 41.23263,-15.19724 61.97024,-22.4553 6.20608,-1.20152 3.21895,-0.76024 8.95121,-1.39095 0,0 -51.29695,26.15167 -51.29695,26.15167 l 0,0 c -4.4664,0.74883 -2.12742,0.25628 -7.00183,1.54754 15.52417,-5.50515 31.0337,-11.05178 46.57255,-16.51548 2.18642,-0.76878 -4.37578,1.53716 -6.51439,2.43038 -2.51824,1.05173 -5.02748,2.13919 -7.4474,3.40079 -8.97662,4.67986 -17.0081,10.79327 -24.23589,17.86527 -2.20968,2.47818 -4.53702,4.85628 -6.62908,7.43456 -5.0748,6.25426 -9.42432,13.28977 -11.60007,21.09127 0,0 -58.1929,16.86168 -58.1929,16.86168 z"
       inkscape:connector-curvature="0"
       inkscape:export-filename="/Users/adam/work/ruby_rockstar/g7467.png"
       inkscape:export-xdpi="36.450001"
       inkscape:export-ydpi="36.450001" />
    <path
       style="fill:#000000;fill-opacity:1;stroke:none"
       id="path3278"
       d="m 330.80591,308.31982 c 0.22292,-1.83965 0.66469,-3.6658 0.66885,-5.5189 0.009,-4.18833 0.0414,-8.41483 -0.62803,-12.54933 -2.5705,-15.87707 -6.9848,-28.14521 -13.8891,-42.89628 -3.9987,-8.54323 -8.39278,-16.92242 -13.30327,-24.9762 -4.99806,-8.19734 -10.91537,-15.7975 -16.37308,-23.69628 -6.07102,-6.96557 -11.76331,-14.28025 -18.21308,-20.89668 -15.82314,-16.23207 -34.30863,-30.21148 -54.46668,-40.60879 -12.57678,-6.48698 -15.47298,-6.81416 -28.28166,-10.76314 -8.90535,-1.95348 -17.9088,-2.56247 -26.86283,-0.63994 -1.7925,0.38487 -3.51135,1.05599 -5.26703,1.58397 0,0 50.03809,-25.85187 50.03809,-25.85187 l 0,0 c 1.47129,-0.0874 2.94024,-0.29 4.41384,-0.26198 7.65818,0.14566 14.90826,2.39824 21.88,5.45603 3.60427,1.8865 7.32617,3.56349 10.81271,5.65954 10.03884,6.03517 17.63473,12.01406 26.49215,19.85755 18.58011,16.45321 35.22429,34.92165 49.87946,54.95098 15.48167,22.05132 18.07637,25.46828 33.03382,47.88869 4.82363,7.23037 9.43697,14.60014 14.29465,21.80771 7.46761,11.08013 15.62021,21.7354 22.50182,33.2089 0,0 -56.73063,18.24602 -56.73063,18.24602 z"
       inkscape:connector-curvature="0"
       inkscape:export-filename="/Users/adam/work/ruby_rockstar/g7467.png"
       inkscape:export-xdpi="36.450001"
       inkscape:export-ydpi="36.450001" />
    <path
       style="fill:#000000;fill-opacity:1;stroke:none"
       id="path3280"
       d="m 297.37229,317.68487 c -2.3222,-1.23175 -2.23517,-1.25004 -5.5162,-2.46143 -18.57549,-6.85818 -37.89413,-11.57663 -57.04768,-16.45597 -8.20872,-1.52331 -16.3697,-3.33108 -24.6261,-4.57012 -23.71916,-3.55938 -48.92071,-5.79132 -72.79235,-2.19546 -6.7217,1.01253 -26.10525,7.32026 -19.85697,4.64337 7.57253,-3.24424 15.92026,-4.24474 23.88042,-6.36709 -4.36133,3.34766 -9.12098,6.23213 -13.08397,10.04299 -12.31914,11.84615 -20.52784,27.42628 -25.39916,43.64293 -3.860774,12.85261 -3.645506,16.85381 -4.895795,29.78513 0.128704,4.04557 0.257298,8.09113 0.385953,12.1367 0,0 -46.527253,14.21782 -46.527253,14.21782 l 0,0 c 0.498782,-4.39275 0.997564,-8.78549 1.496358,-13.17822 2.054833,-11.29155 3.361462,-20.25538 6.767716,-31.33267 4.869369,-15.83548 13.317305,-33.84514 24.853296,-45.97975 4.048124,-4.2582 9.043042,-7.50347 13.564569,-11.2552 18.753166,-7.01326 37.212816,-14.86797 56.259506,-21.03979 10.74431,-3.48156 27.93139,-3.77667 38.78427,-3.39443 7.79936,0.27474 15.57365,1.08384 23.33659,1.88526 18.74592,1.93531 33.02886,4.27794 51.70981,7.05605 27.73114,3.83817 55.55138,7.8191 83.54572,9.06235 0,0 -54.83871,25.75746 -54.83871,25.75746 z"
       inkscape:connector-curvature="0"
       inkscape:export-filename="/Users/adam/work/ruby_rockstar/g7467.png"
       inkscape:export-xdpi="36.450001"
       inkscape:export-ydpi="36.450001" />
    <path
       style="fill:#000000;fill-opacity:1;stroke:none"
       id="path3282"
       d="m 315.29345,329.48806 c -20.77031,4.93021 18.4554,-9.0435 28.46934,-10.1651 7.39486,-0.82827 -13.67907,5.94491 -20.11813,9.67434 -17.13629,9.92518 -31.48022,21.19819 -45.48046,35.28862 -7.08874,7.1344 -13.21234,15.16683 -19.81854,22.75024 -18.29002,24.02742 -32.95763,50.633 -42.57666,79.2786 -1.34132,3.99454 -2.36951,8.08749 -3.55426,12.13125 0,0 -45.87276,12.21957 -45.87276,12.21957 l 0,0 c 18.48448,-33.3148 38.00102,-66.13618 61.24948,-96.40659 6.27231,-7.62108 12.27887,-15.46895 18.81697,-22.86326 11.72002,-13.25479 22.23638,-23.95716 36.37755,-34.39575 4.62232,-3.41202 9.33145,-6.89475 14.63456,-9.10492 46.92058,-19.55506 41.84196,-17.96217 70.03336,-24.24078 0,0 -52.16045,25.83378 -52.16045,25.83378 z"
       inkscape:connector-curvature="0"
       inkscape:export-filename="/Users/adam/work/ruby_rockstar/g7467.png"
       inkscape:export-xdpi="36.450001"
       inkscape:export-ydpi="36.450001" />
    <path
       style="fill:#000000;fill-opacity:1;stroke:none"
       id="path3284"
       d="m 330.9696,307.19383 c -0.64147,-1.87083 -10.84346,1.89818 -8.20366,1.0964 9.15771,-2.78146 29.1886,-17.57434 27.53198,-8.14802 -1.86958,10.63824 -19.38059,9.57702 -28.73286,14.98097 -34.70816,20.05521 -39.26512,24.90748 -72.21654,49.24835 -11.19824,9.46463 -22.69158,18.59072 -33.59467,28.39391 -9.73418,8.75216 -19.09407,17.92143 -28.28456,27.24293 -18.85265,19.12142 -36.68548,39.591 -51.74578,61.87093 -2.8541,4.22231 -5.34613,8.67842 -8.0192,13.01761 -5.60551,11.71296 -3.39536,6.23991 -6.96749,16.27901 0,0 -51.169806,12.99239 -51.169806,12.99239 l 0,0 c 9.013215,-11.8355 3.93177,-5.43911 15.415722,-19.05184 4.468404,-4.83381 8.846017,-9.75321 13.405248,-14.50146 12.867136,-13.40063 27.611156,-27.7376 41.001206,-40.39554 29.83448,-28.20327 60.46727,-55.5607 91.88506,-81.99006 21.48143,-17.92945 35.51085,-30.22754 57.51141,-46.55673 6.36317,-4.72285 12.37154,-10.16928 19.54942,-13.52678 19.87416,-9.29628 40.60688,-16.65965 61.19585,-24.24231 7.15426,-2.63482 9.55245,-2.28135 15.85833,-2.2704 0,0 -54.41966,25.56064 -54.41966,25.56064 z"
       inkscape:connector-curvature="0"
       inkscape:export-filename="/Users/adam/work/ruby_rockstar/g7467.png"
       inkscape:export-xdpi="36.450001"
       inkscape:export-ydpi="36.450001" />
    <path
       style="fill:#000000;fill-opacity:1;stroke:none"
       id="path3286"
       d="m 371.86854,338.40029 c 0.69752,-0.43182 1.36908,-0.90861 2.09248,-1.29545 2.65,-1.41704 5.40262,-2.61918 8.0006,-4.15235 2.14814,-1.26768 3.7533,-2.40879 5.80111,-3.80521 7.06877,-5.0249 13.28466,-11.11629 18.85758,-17.73615 14.44073,-16.91558 46.28239,-36.95266 63.11656,-19.99539 4.55821,4.59155 8.07342,11.07601 11.3428,16.37578 3.25202,5.27167 6.45784,10.57168 9.68677,15.85754 22.09658,34.99425 46.20294,68.64972 70.94942,101.80195 0,0 -37.01289,13.84707 -37.01289,13.84707 l 0,0 c -3.42807,-6.31826 -6.64426,-12.75614 -10.28421,-18.95474 -17.43148,-29.68469 -38.47831,-57.14904 -62.96463,-81.367 -10.95026,-9.5323 -15.0878,-14.28313 -26.94329,-21.06585 -2.16547,-1.2389 -4.48043,-2.32048 -6.91587,-2.86155 -1.14716,-0.25497 -4.57823,0.97486 -3.48202,0.55149 55.08522,-21.27421 66.16535,-29.14011 48.45217,-17.0917 -6.11813,6.18516 -11.96176,12.64879 -18.24972,18.65977 -5.23142,4.37052 -0.16298,0.27982 -5.4388,4.13853 -0.83578,0.61127 -1.58873,1.3346 -2.44845,1.91174 -0.73901,0.49612 -1.57899,0.82595 -2.33332,1.29842 -0.62689,0.39264 -1.15898,0.93005 -1.8036,1.29277 -0.34201,0.19247 -0.74859,0.23599 -1.12289,0.35396 0,0 -59.2998,12.23637 -59.2998,12.23637 z"
       inkscape:connector-curvature="0"
       inkscape:export-filename="/Users/adam/work/ruby_rockstar/g7467.png"
       inkscape:export-xdpi="36.450001"
       inkscape:export-ydpi="36.450001" />
    <g
       id="layer1-8"
       inkscape:label="Layer 1"
       transform="matrix(0.50604025,3.0618424e-4,-3.0618424e-4,0.50604025,202.74499,103.25297)"
       style="fill:#000000;fill-opacity:0.80888893"
       inkscape:export-filename="/Users/adam/work/ruby_rockstar/g7467.png"
       inkscape:export-xdpi="36.450001"
       inkscape:export-ydpi="36.450001">
      <path
         inkscape:connector-curvature="0"
         id="path3536"
         d="m 416.84125,486.9658 c -21.1844,0.97678 -46.75362,7.4712 -55.59902,29.10865 -7.22612,21.46495 5.28738,42.85687 16.39863,60.48613 16.88174,23.16044 43.37189,44.72246 73.71737,41.5675 31.43848,-4.30472 56.31884,-32.65691 59.8257,-63.67755 4.32209,-20.22019 2.85189,-45.87937 -15.83253,-58.63291 -21.95496,-13.13029 -48.74585,-10.50901 -73.20731,-9.64886 l -2.65645,0.36492 -2.64639,0.43212 0,0 z"
         style="fill:#000000;fill-opacity:0.80888893;stroke:#000000;stroke-width:1px;stroke-linecap:butt;stroke-linejoin:miter;stroke-opacity:1" />
      <path
         inkscape:connector-curvature="0"
         id="path4353"
         d="m 273.68145,486.41149 c 21.1844,0.97678 46.75362,7.4712 55.59902,29.10865 7.22612,21.46495 -5.28738,42.85687 -16.39863,60.48613 -16.88174,23.16044 -43.37189,44.72246 -73.71737,41.5675 -31.43848,-4.30472 -56.31884,-32.65691 -59.8257,-63.67755 -4.32209,-20.22019 -2.85189,-45.87937 15.83253,-58.63291 21.95496,-13.13029 48.74585,-10.50901 73.20732,-9.64886 l 2.65644,0.36492 2.64639,0.43212 0,0 z"
         style="fill:#000000;fill-opacity:0.80888893;stroke:#000000;stroke-width:1px;stroke-linecap:butt;stroke-linejoin:miter;stroke-opacity:1" />
      <path
         inkscape:connector-curvature="0"
         id="rect4373"
         d="m 268.2861,486.96582 c 51.36607,0 102.73215,0 154.09822,0 0.50752,5.50749 -6.84053,2.74353 -10.18104,3.32586 -47.9724,0 -95.94479,0 -143.91718,0 0,-1.10862 0,-2.21724 0,-3.32586 z"
         style="fill:#000000;fill-opacity:0.80888893;stroke:none" />
      <path
         inkscape:connector-curvature="0"
         id="rect4375"
         d="m 313.06362,521.56048 c 2.88245,-3.54537 4.38938,-8.44982 8.66732,-10.67629 7.68,-0.71103 14.36533,-6.2241 22.2799,-5.34931 5.01095,0.52345 9.87771,2.27581 14.96028,2.0988 5.36102,0.81405 9.09718,5.11102 12.86409,8.60369 2.94301,0.93858 3.01774,5.94217 0.0116,6.84477 -4.28677,-0.0979 -6.85988,-4.00066 -9.90524,-6.43679 -2.79265,-2.50628 -6.44378,-4.31084 -10.26681,-4.16071 -5.21466,-0.81842 -10.75309,-3.12709 -15.91992,-0.84849 -4.0661,1.71148 -8.04257,3.72978 -12.35702,4.75942 -2.78639,1.85252 -3.52845,5.65835 -2.70608,8.73525 0.0702,3.05657 -5.01931,4.2941 -6.15094,1.34079 -0.86641,-1.4925 -1.36216,-3.19138 -1.47718,-4.91113 z"
         style="fill:#000000;fill-opacity:0.80888893;stroke:none" />
    </g>
    <path
       style="fill:#000000;fill-opacity:1;stroke:none"
       id="path5044"
       d="m 387.02539,317.05063 c 3.58465,-10.1203 9.84692,-18.97667 15.35484,-28.09697 2.86703,-4.74736 10.63013,-17.90169 13.42522,-22.62869 7.1758,-12.18142 14.09632,-24.57802 22.24731,-36.15259 1.69294,-2.40401 6.58364,-8.7551 8.56717,-11.34756 7.24909,-9.47153 16.44243,-16.99826 26.0047,-23.98997 5.073,-3.58381 10.17538,-7.1578 15.57353,-10.24429 28.77728,-16.45384 39.75254,-25.44223 64.01641,-34.3948 9.67101,-3.22312 19.46676,-6.0355 29.17268,-9.16843 8.0892,-3.40998 16.9085,-3.3844 25.53006,-3.69651 15.20282,-0.55038 9.97511,-0.41032 26.2798,-0.167 22.54647,0.64961 44.43411,3.98691 66.37746,8.95343 0,0 -42.90932,29.29602 -42.90932,29.29602 l 0,0 c -2.69728,-1.06208 -5.34692,-2.25414 -8.09183,-3.18625 -17.07503,-5.79826 -35.09841,-7.88273 -53.07852,-7.5072 -5.13515,0.35027 -10.28473,0.5303 -15.40542,1.05081 -8.22664,0.83623 -17.33421,2.36089 -25.42163,4.31306 -6.74973,1.62928 -8.06611,2.40111 -14.01153,4.37131 -1.35096,0.44768 -2.71735,0.84732 -4.07601,1.27097 -9.32458,2.88509 -18.80813,5.26792 -27.95815,8.68345 -18.94617,7.77671 -39.98053,21.93257 31.089,-19.64306 1.76853,-1.03459 -3.57892,1.99658 -5.34547,3.03457 -1.78202,1.04712 -3.56581,2.094 -5.29903,3.22005 -1.72133,1.11836 -3.37323,2.34009 -5.05986,3.51011 -9.78189,6.85717 -19.30034,14.10137 -27.30112,23.05021 -1.69537,1.84966 -9.47199,10.30412 -10.81297,11.90007 -9.71213,11.55891 -18.01497,24.26074 -25.83215,37.14461 -5.11449,9.0457 -7.24531,12.46128 -11.70509,21.68751 -2.98207,6.16921 -6.04717,13.04009 -7.41566,19.8438 -0.15367,0.76382 -0.0959,1.55526 -0.14401,2.33291 0,0 -53.77044,26.5604 -53.77044,26.5604 z"
       inkscape:connector-curvature="0"
       inkscape:export-filename="/Users/adam/work/ruby_rockstar/g7467.png"
       inkscape:export-xdpi="36.450001"
       inkscape:export-ydpi="36.450001" />
    <path
       style="fill:#000000;fill-opacity:1;stroke:none"
       id="path5046"
       d="m 395.36443,300.5096 c 14.61992,-12.41998 29.47615,-24.60666 45.65803,-34.97808 5.14182,-3.29555 10.46454,-6.29996 15.6968,-9.44994 17.8663,-10.07499 35.619,-20.35411 53.59887,-30.22501 5.44712,-2.99043 11.11829,-5.55339 16.66705,-8.35075 5.54598,-2.79592 11.08851,-5.59881 16.61708,-8.42902 14.48092,-7.41309 28.83263,-15.0552 43.16341,-22.75279 12.39337,-6.34303 25.1134,-13.3978 39.52461,-12.51316 7.1415,0.43837 10.99993,2.10252 17.75371,4.22065 12.81124,4.71003 24.50119,11.94986 35.64024,19.74634 2.91552,2.24522 5.8403,4.68662 7.61519,7.98867 0.87639,1.63045 1.6424,3.93377 2.26825,5.64893 1.90066,6.03065 4.26653,11.904 6.77942,17.70293 0,0 -51.49394,28.45157 -51.49394,28.45157 l 0,0 c -0.75259,-2.74114 -1.30707,-5.50818 -2.2249,-8.20404 -1.20886,-3.55051 -1.1514,-3.05218 -2.69249,-6.54258 -0.4222,-0.95621 -0.82422,-1.92121 -1.23636,-2.88181 -2.07963,-4.25335 -4.67997,-8.18168 -7.69175,-11.84121 -1.80108,-1.9583 -3.82408,-4.23164 -5.77664,-6.00431 -7.08286,-6.43026 -15.34127,-11.36127 -24.42535,-14.39555 -7.04361,-1.66978 -9.61615,-2.75882 -16.89713,-2.60712 -12.38133,0.25793 -23.58593,6.09163 -34.52049,11.22344 -18.59875,9.28239 -37.23765,18.49203 -55.76801,27.9103 -5.64879,2.87106 -21.51369,13.03895 -16.90938,8.68555 5.98523,-5.65912 14.12159,-8.48383 21.18238,-12.72572 -12.42711,7.50416 -14.83113,8.51218 -26.09884,16.94086 -6.9966,5.23372 -14.31917,11.05089 -19.481,18.2396 -0.42949,0.59812 -0.66826,1.31233 -1.00237,1.9685 0,0 -55.94639,23.17375 -55.94639,23.17375 z"
       inkscape:connector-curvature="0"
       inkscape:export-filename="/Users/adam/work/ruby_rockstar/g7467.png"
       inkscape:export-xdpi="36.450001"
       inkscape:export-ydpi="36.450001" />
    <path
       style="fill:#000000;fill-opacity:1;stroke:none"
       id="path5050"
       d="m 468.43746,291.964 c 17.76986,-10.21704 35.42814,-20.6307 53.30961,-30.65114 1.27114,-0.71231 2.74272,-0.98628 4.09879,-1.51946 5.90074,-2.31997 11.79387,-4.66068 17.65275,-7.08444 12.78018,-5.28702 15.78019,-6.77493 28.72075,-12.62335 13.67631,-5.86287 27.00376,-12.51305 40.67557,-18.38481 6.76607,-2.90591 11.73309,-4.96921 18.77188,-6.78448 2.53275,-0.6532 5.13041,-1.02197 7.69564,-1.53297 0,0 -43.15586,32.65562 -43.15586,32.65562 l 0,0 c -2.1617,0.42019 -4.34583,0.73827 -6.48517,1.2606 -5.40253,1.31909 -10.50309,3.14091 -15.70579,5.10302 -12.47518,4.70476 -24.67765,10.10136 -36.85329,15.52098 -15.11245,6.95689 -30.21191,13.93386 -45.04101,21.48361 -3.27742,1.66858 -6.53354,3.38023 -9.75787,5.14921 -2.03296,1.11532 -8.02185,4.65612 -6.01071,3.50193 16.12611,-9.25465 32.23711,-18.53559 48.35565,-27.80338 0,0 -56.27094,21.70906 -56.27094,21.70906 z"
       inkscape:connector-curvature="0"
       inkscape:export-filename="/Users/adam/work/ruby_rockstar/g7467.png"
       inkscape:export-xdpi="36.450001"
       inkscape:export-ydpi="36.450001" />
    <path
       style="fill:#000000;fill-opacity:1;stroke:none"
       id="path5052"
       d="m 361.14455,286.59342 c -5.19519,-17.71125 -13.61775,-34.25536 -23.51041,-49.78435 -3.02623,-4.75042 -6.35773,-9.29933 -9.53658,-13.94901 -11.72194,-16.28843 -24.48844,-31.85235 -38.6708,-46.06654 -5.92922,-5.94253 -8.60255,-8.19591 -14.61305,-13.56955 0,0 45.07857,-27.25066 45.07857,-27.25066 l 0,0 c 6.07894,8.8152 12.50181,17.35175 18.79711,26.01298 9.26699,12.74978 18.3713,25.61873 27.79553,38.25428 2.99274,4.14918 16.58546,23.05521 19.7856,27.25382 6.97142,9.14648 14.36709,18.41079 23.01112,26.07923 1.07094,0.95007 2.29163,1.71656 3.43745,2.57484 0,0 -51.57454,30.44496 -51.57454,30.44496 z"
       inkscape:connector-curvature="0"
       inkscape:export-filename="/Users/adam/work/ruby_rockstar/g7467.png"
       inkscape:export-xdpi="36.450001"
       inkscape:export-ydpi="36.450001" />
    <path
       style="fill:#000000;fill-opacity:1;stroke:none"
       id="path5054"
       d="m 394.49157,282.09553 c 4.07601,-18.52024 11.18932,-36.24575 19.31288,-53.33573 2.89815,-6.09699 6.08566,-12.05221 9.12851,-18.07832 13.50717,-26.59927 26.3767,-53.99809 43.49069,-78.55173 2.57394,-3.69285 5.4054,-7.19937 8.10811,-10.79905 9.77571,-12.05872 20.09033,-23.671381 30.50379,-35.180017 0,0 52.68804,-21.623607 52.68804,-21.623607 l 0,0 c -14.13042,11.723427 -27.2472,24.612123 -39.58892,38.201764 -3.19684,3.69619 -6.5317,7.27739 -9.59052,11.08858 -19.2985,24.04522 -34.23693,51.33954 -47.05454,79.27108 -6.96476,16.86509 -18.05405,39.94077 -14.50905,58.82897 0.19048,1.01488 0.63698,1.9645 0.95547,2.94674 0,0 -53.44446,27.23132 -53.44446,27.23132 z"
       inkscape:connector-curvature="0"
       inkscape:export-filename="/Users/adam/work/ruby_rockstar/g7467.png"
       inkscape:export-xdpi="36.450001"
       inkscape:export-ydpi="36.450001" />
    <path
       style="fill:#000000;fill-opacity:1;stroke:none"
       id="path5056"
       d="m 325.9941,308.05491 c -1.02492,-1.51948 -1.95118,-3.11035 -3.07476,-4.5584 -19.65387,-25.32947 -44.82402,-46.22508 -71.65351,-63.55136 -10.36136,-6.69128 -21.31461,-12.41818 -31.97191,-18.62727 -36.91659,-19.3027 -76.1227,-33.88499 -116.68045,-43.35089 -6.484468,-1.51344 -13.052731,-2.64236 -19.579098,-3.96352 0,0 35.709288,-24.33707 35.709288,-24.33707 l 0,0 c 40.90066,18.28185 81.76445,36.77744 121.11297,58.25917 4.84551,2.60666 60.79709,32.73032 65.99717,35.43159 9.63917,5.0073 19.384,9.80963 29.13242,14.60075 13.65822,6.71267 21.43532,10.49892 34.60311,15.89799 2.20998,0.90615 4.47647,1.66787 6.7147,2.50181 0,0 -50.30993,31.6972 -50.30993,31.6972 z"
       inkscape:connector-curvature="0"
       inkscape:export-filename="/Users/adam/work/ruby_rockstar/g7467.png"
       inkscape:export-xdpi="36.450001"
       inkscape:export-ydpi="36.450001" />
    <path
       style="fill:#000000;fill-opacity:1;stroke:none"
       id="path5058"
       d="m 292.56251,309.62121 c -21.12065,3.3122 -42.08405,8.32786 -61.76198,16.8859 -10.43539,4.5384 -20.40063,10.08914 -30.60096,15.13371 -19.19482,13.62619 -32.91874,22.91488 -52.0179,39.77945 -20.613,18.20124 -39.16877,38.36675 -55.437204,60.52837 -16.843808,22.94544 -19.915014,31.15779 -32.34984,55.4692 -11.382314,28.78166 -6.642339,14.94725 -14.616489,41.36523 0,0 -36.6186953,16.94454 -36.6186953,16.94454 l 0,0 c 14.2266283,-29.45992 6.4358263,-14.10059 23.5741343,-45.9751 15.266505,-24.48682 21.660569,-36.20164 40.111271,-59.36246 16.380696,-20.56238 38.925513,-44.726 58.454283,-62.19381 10.78246,-9.64456 21.89357,-18.99149 33.72742,-27.31247 17.5802,-12.36159 36.25207,-23.0928 54.37812,-34.63918 11.93131,-6.32097 23.67952,-13.00038 35.79392,-18.96293 10.60808,-5.22114 21.4294,-10.01327 32.33893,-14.57112 17.18428,-7.17933 35.31307,-12.0649 52.19027,-20.01266 0,0 -47.16528,36.92333 -47.16528,36.92333 z"
       inkscape:connector-curvature="0"
       inkscape:export-filename="/Users/adam/work/ruby_rockstar/g7467.png"
       inkscape:export-xdpi="36.450001"
       inkscape:export-ydpi="36.450001" />
    <path
       style="fill:#000000;fill-opacity:1;stroke:none"
       id="path5062"
       d="m 346.82022,332.17077 c -4.44047,-15.61002 -12.1584,-30.34926 -22.75167,-42.69038 -3.49465,-4.07125 -7.50236,-7.67239 -11.25354,-11.5086 -17.51675,-15.60521 -36.76907,-26.20791 -59.03155,-33.45509 -12.4261,-4.04513 -17.66098,-4.6934 -30.30329,-7.18307 -13.30273,-2.24707 -26.76567,-3.11944 -40.23018,-3.57334 -9.1866,-0.30969 -14.33374,-0.50494 -23.45452,0.19947 -3.7044,0.28609 -7.3831,0.84118 -11.07464,1.26176 -15.2253,2.13934 -30.18654,6.08977 -44.2356,12.39465 -8.37664,3.75922 -13.601801,6.93282 -21.608442,11.42916 10.333895,-5.71339 20.249162,-12.26016 31.001732,-17.1402 3.85196,-1.74818 -6.86637,4.95411 -10.11657,7.6615 -10.055529,8.37621 -18.829281,18.15853 -26.618288,28.64767 -2.459274,3.31179 -4.69469,6.7841 -7.042011,10.17614 -6.406365,9.82789 -11.986148,20.14131 -16.914853,30.77542 0,0 -49.5918243,22.19583 -49.5918243,22.19583 l 0,0 c 7.0915233,-11.27318 14.3245873,-22.45753 21.7686923,-33.50182 7.520576,-10.76102 15.008073,-21.53834 23.990473,-31.1662 20.022592,-21.46137 45.981017,-34.02354 71.632191,-48.37692 9.11012,-4.90445 12.791,-7.18086 22.30293,-11.14817 14.64201,-6.10696 30.10936,-10.00634 45.84909,-11.89087 3.68981,-0.26851 7.37217,-0.67484 11.06944,-0.80554 20.65851,-0.73027 41.34353,2.37006 61.54113,6.34933 4.75996,1.24237 9.56905,2.30982 14.2799,3.72713 27.412,8.24715 52.96951,21.78456 75.21799,39.79115 11.13636,10.26267 13.15395,11.78576 23.46295,22.57685 16.86353,17.65211 1.88914,2.61793 15.82852,17.51695 4.16974,4.45682 4.02177,4.17299 7.85647,7.29223 0,0 -51.57453,30.44496 -51.57453,30.44496 z"
       inkscape:connector-curvature="0"
       inkscape:export-filename="/Users/adam/work/ruby_rockstar/g7467.png"
       inkscape:export-xdpi="36.450001"
       inkscape:export-ydpi="36.450001" />
    <path
       style="fill:#8e8e8e;fill-opacity:1;stroke:#000000;stroke-width:1.85728431;stroke-miterlimit:4;stroke-opacity:1;stroke-dasharray:none"
       id="path5068"
       d="m 370.06073,435.02593 c -0.18175,0.0707 -0.35972,0.15715 -0.54541,0.21237 -1.55472,0.46274 -6.25913,1.63326 -4.70789,1.15428 31.07864,-9.5963 13.31925,-3.95238 7.54151,-1.7804 -2.78578,1.0472 -5.53807,2.21028 -8.30709,3.3154 -14.20003,6.18195 -28.11633,13.21124 -41.95329,20.374 -5.53078,2.92243 -11.07594,5.81693 -16.5337,8.91075 -0.96877,0.5384 -1.91741,1.11632 -2.88798,1.65016 0,0 -24.99397,3.77099 -24.99397,3.77099 l 0,0 c 1.18531,-0.78228 2.42869,-1.3654 3.69902,-1.95898 6.91869,-3.29862 13.93641,-6.31253 20.86998,-9.57371 6.82415,-3.20131 13.65532,-6.38792 20.45447,-9.65762 5.79647,-2.78754 9.73036,-4.79469 15.56349,-7.5236 2.60326,-1.21786 5.22567,-2.38173 7.8385,-3.57257 1.65566,-0.73993 11.18911,-5.07237 13.37737,-5.79773 8.65359,-2.86857 17.37502,-5.44464 26.07339,-8.11787 1.77081,-0.54422 5.42841,-1.6566 7.4988,-1.83876 0.48983,-0.0433 0.9673,0.11845 1.45093,0.17775 0,0 -24.43813,10.2556 -24.43813,10.2556 z"
       inkscape:connector-curvature="0"
       inkscape:export-filename="/Users/adam/work/ruby_rockstar/g7467.png"
       inkscape:export-xdpi="36.450001"
       inkscape:export-ydpi="36.450001" />
    <path
       style="fill:#8e8e8e;fill-opacity:1;stroke:none"
       id="path5100"
       d="m 291.68918,409.17739 c -2.63174,0.1992 -5.29146,0.77751 -7.80578,1.96533 -2.1731,1.32083 -4.43143,2.42369 -6.58867,3.77213 -2.43738,1.39131 -4.13979,3.73915 -5.98697,6.03279 -2.57082,3.11582 -4.02369,6.70355 -4.12962,10.89646 0.42902,4.00286 2.62592,6.80113 4.83821,9.48854 3.39744,3.59018 6.79487,7.18033 10.1923,10.77049 0.34068,0.34955 1.35842,1.40393 1.02204,1.04858 -2.75296,-2.90806 -5.48531,-5.84419 -8.27187,-8.70694 -1.5646,-1.6074 1.46167,1.96844 1.99083,2.89103 1.54776,3.545 1.4809,7.78696 1.30195,11.82529 -0.0128,0.6403 -0.0247,1.28064 -0.037,1.92096 0,0 9.88354,8.89174 9.88354,8.89174 l 0,0 c -0.0182,-0.62397 -0.0357,-1.24796 -0.0536,-1.87196 0.23678,-4.22401 0.27963,-8.47358 -0.68225,-12.47526 -4.08962,-8.4552 -23.91904,-25.48329 -4.85495,-6.40457 -2.26568,-2.29048 -4.43616,-5.05433 -5.42977,-8.50194 -0.26557,-4.05742 0.96515,-6.82916 3.41895,-9.86757 1.7666,-2.12391 3.42764,-4.28536 5.72822,-5.55905 2.12945,-1.27759 4.29257,-2.46488 6.45255,-3.65652 2.4787,-1.04128 5.04303,-1.53778 7.60646,-1.53581 0,0 -8.59461,-10.92372 -8.59461,-10.92372 z"
       inkscape:connector-curvature="0"
       inkscape:export-filename="/Users/adam/work/ruby_rockstar/g7467.png"
       inkscape:export-xdpi="36.450001"
       inkscape:export-ydpi="36.450001" />
    <g
       id="g7794"
       transform="matrix(0.87258564,0.48846116,-0.48846116,0.87258564,-138.62554,-195.35982)">
      <path
         style="fill:url(#linearGradient7886);fill-opacity:1;stroke:#000000;stroke-width:3.0999999;stroke-linecap:butt;stroke-linejoin:miter;stroke-miterlimit:4;stroke-opacity:1;stroke-dasharray:none"
         d="m 809.85084,373.44019 c -20.84017,-11.98199 -40.06934,4.65058 -44.95346,24.99437 -6.42645,25.25543 -33.71155,33.7176 -54.65432,43.67022 -32.32904,14.65825 -64.30051,31.92533 -90.83928,55.77386 -8.91574,18.83049 29.37995,17.31333 41.19068,24.9 41.11113,17.52812 85.03176,29.3941 129.72699,32.59467 23.52775,-9.10673 22.2187,-37.55026 27.64859,-58.0222 4.82148,-26.6745 27.06751,-44.39866 49.72642,-56.31713 13.76937,-10.61073 32.87063,-12.88765 43.16646,-27.83653 17.21799,-30.3359 -29.75399,-23.32966 -44.47392,-13.18764 -22.32809,9.6959 -31.43812,-15.41587 -16.37239,-29.61932 15.00495,-26.05445 36.1321,-47.91408 51.26934,-73.95125 22.47158,-33.81871 43.59004,-69.21002 71.62465,-98.75507 15.24953,-15.96937 39.2644,-16.77747 56.1987,-28.54932 2.9861,-21.31378 -29.99102,-19.07341 -43.93889,-14.10786 -14.09508,8.54595 -47.04374,8.95383 -44.16614,28.36747 -1.84909,27.12936 -26.95514,42.71935 -40.21624,64.22292 -30.87958,41.52979 -60.02951,84.31371 -90.93719,125.82281 z"
         id="path5193-9"
         inkscape:connector-curvature="0" />
      <path
         style="fill:#54c854;fill-opacity:1;stroke:none"
         d="m 935.32987,210.64065 c 10.51885,-21.80025 27.36722,21.8001 3.22769,7.81635 -2.31875,-1.77377 -4.0029,-4.82138 -3.22769,-7.81635 z"
         id="rect5209"
         inkscape:connector-curvature="0" />
      <path
         style="fill:#d38f49;fill-opacity:1;stroke:none"
         d="m 893.18701,269.21207 c 10.51886,-21.80025 27.3672,21.8001 3.22769,7.81635 -2.31875,-1.77377 -4.0029,-4.82139 -3.22769,-7.81635 z"
         id="rect5213"
         inkscape:connector-curvature="0" />
      <path
         style="fill:#7354c8;fill-opacity:1;stroke:none"
         d="m 903.18703,254.92637 c 10.56128,-21.83632 27.32951,21.9125 3.23559,7.80962 -2.29602,-1.79524 -3.95015,-4.81895 -3.23559,-7.80962 z"
         id="rect5215"
         inkscape:connector-curvature="0" />
      <path
         style="fill:#ccca50;fill-opacity:1;stroke:none"
         d="m 913.90131,239.92637 c 10.51882,-21.80027 27.36723,21.80009 3.22769,7.81635 -2.31875,-1.77377 -4.0029,-4.82138 -3.22769,-7.81635 z"
         id="rect5217"
         inkscape:connector-curvature="0" />
      <path
         style="fill:#c95353;fill-opacity:1;stroke:none"
         d="m 924.6156,225.64066 c 10.56127,-21.83632 27.32949,21.91247 3.23558,7.80962 -2.29602,-1.79525 -3.95014,-4.81895 -3.23558,-7.80962 z"
         id="rect5219"
         inkscape:connector-curvature="0" />
      <path
         style="fill:none;stroke:#000000;stroke-width:3.0999999;stroke-linecap:butt;stroke-linejoin:miter;stroke-miterlimit:4;stroke-opacity:1;stroke-dasharray:none"
         d="m 770.92227,434.15448 c -4.55481,11.95793 -35.45381,34.99833 -11.73338,39.7696 7.32848,-11.05249 34.76961,-30.89938 12.62421,-40.00152 l -0.89083,0.23192 0,0 z"
         id="path5769"
         inkscape:connector-curvature="0" />
      <path
         style="fill:none;stroke:#000000;stroke-width:3.0999999;stroke-linecap:butt;stroke-linejoin:miter;stroke-miterlimit:4;stroke-opacity:1;stroke-dasharray:none"
         d="m 772.70798,443.44019 c -3.26322,8.08577 -10.39737,13.71295 -14.28571,21.42857"
         id="path5789"
         inkscape:connector-curvature="0" />
    </g>
    <path
       style="fill:#000000;fill-opacity:1;stroke:none"
       id="path5048"
       d="m 467.91288,273.06394 c 18.91238,4.71375 38.60799,5.0041 57.92293,6.70567 7.30888,0.64388 14.59575,1.517 21.89361,2.27549 24.55249,3.73413 51.74422,7.20739 71.44345,24.04166 10.14789,8.67203 11.19049,13.2275 17.34557,24.74673 1.78153,4.84569 3.82336,9.60348 5.34455,14.53707 1.56029,5.06041 2.72436,10.23732 3.88713,15.40355 4.27225,18.98178 6.6293,38.37329 8.66841,57.69903 1.85744,16.31143 2.26809,32.71696 2.64759,49.11083 0,0 -48.20289,24.07678 -48.20289,24.07678 l 0,0 c 0.45343,-2.56531 1.02413,-5.11264 1.36028,-7.69595 1.86771,-14.35242 1.34818,-28.88866 1.41273,-43.31574 -0.32713,-9.33644 -0.50648,-18.41138 -1.4169,-27.72459 -1.97138,-20.1664 -6.04674,-40.21468 -14.18931,-58.85032 -5.782,-10.41482 -7.22937,-14.83261 -15.84141,-23.23794 -11.93017,-11.6438 -27.60462,-18.5605 -43.63201,-22.3873 -6.87431,-1.64133 -13.9384,-2.34976 -20.90761,-3.52465 -7.46847,-0.5444 -14.92159,-1.37526 -22.40545,-1.63321 -24.70097,-0.85131 -49.43612,1.54287 -73.85722,5.0295 0,0 48.52655,-35.25661 48.52655,-35.25661 z"
       inkscape:connector-curvature="0"
       inkscape:export-filename="/Users/adam/work/ruby_rockstar/g7467.png"
       inkscape:export-xdpi="36.450001"
       inkscape:export-ydpi="36.450001" />
  </g>
</svg>
